# xmcd
#
# Track frame offsets: 
#        150
#        11372
#        26732
#        46085
#        61210
#        81085
#        95822
#        117045
#        131425
#        147732
#        167310
#        182702
#        198020
#
# Disc length: 2774 seconds
#
# Revision: 0
# Processed by: cddbd v1.5.2PL0 Copyright (c) Steve Scherf et al.
# Submitted via: ExactAudioCopy v0.95b4
#
DISCID=a20ad40d
DTITLE=Ranchstyle - Neil Mooney
DYEAR=1900
DGENRE=Country
TTITLE0=Start the Music Without Me
TTITLE1=Givin' Up
TTITLE2=Blue Moon Blue
TTITLE3=Fool's Gold
TTITLE4=Swanee
TTITLE5=Devil #2
TTITLE6=3:00 AM
TTITLE7=Back to the Wild Side
TTITLE8=Blazing Trailer of Love
TTITLE9=Sea of Heartbreak
TTITLE10=Blue Train
TTITLE11=Chords of Fame
TTITLE12=Hot Rod Woman
EXTD=
EXTT0=
EXTT1=
EXTT2=
EXTT3=
EXTT4=
EXTT5=
EXTT6=
EXTT7=
EXTT8=
EXTT9=
EXTT10=
EXTT11=
EXTT12=
PLAYORDER=
